<svg xmlns="http://www.w3.org/2000/svg" width="582.519" height="323.703" viewBox="0 0 582.519 323.703">
  <path id="cykel" d="M285.074,399.927c2.668-1.6,5.243-3.938,8.155-4.66,3.216-.827,6.8-.186,10.485-.186v-37.5H234.861c-5.907,35.58-24.116,62.807-56.015,79.921-25.293,13.584-52.182,15.949-79.735,7.911-55.3-16.147-87.307-74.981-71.894-130.483,15.064-54.279,78.2-96.7,146.351-68.2q16.485-27.961,32.959-56.143a8.155,8.155,0,0,0,.85-4.217c-.35-8.738-9.2-21.122-17.7-23.184-6.361-1.55-8.551-8.982-7.887-14.446.617-5.114,4.008-7.561,10.87-7.573,23.068-.058,46.135-.2,69.191.175,3.344.058,6.629,2.749,10.322,4.392-3.425,6.629-6.874,10.485-13.98,11.033-11.464.827-22.846,2.68-34.147,4.078-2.05,10.38,3.041,16.718,13.072,16.73l159.236.116h21.25c0-17.72-10.555-28.5-27.506-28.508-9.157,0-18.314.07-27.46,0-7.433-.07-11.231-3.984-11.65-11.65-.315-6.349,3.146-10.846,10.206-10.986,17.545-.35,35.126-.3,52.659.256,7.118.221,11.091,5.639,13.666,11.942q19.9,48.652,39.867,97.268c.687,1.689,1.456,3.344,2.435,5.58,38.632-9.25,73.537-2.062,103.047,25.468a101.16,101.16,0,0,1,32.434,65.953,106.018,106.018,0,0,1-77.067,113.008c-49.362,13.84-102.6-10.38-124.414-56.807-22.345-47.731-7.561-108.115,44.574-138.6-5.383-13-10.788-26.085-16.555-40.054-6.116,7.724-11.813,14.889-17.476,22.136q-45.809,58.252-91.595,116.5c-3.845,4.881-6.28,10.054-6.058,16.555.373,10.415.14,20.854.245,31.281.07,6.792-3.041,10.077-9.938,10.171-3.5,0-6.99-.349-10.415.082C291.272,407.885,287.952,405.555,285.074,399.927Zm172.1-128.153c-32.726,17.778-54.092,63.879-33.46,108,19.2,41.056,68.2,59.242,109.967,40.939,41.428-18.151,61.315-66.57,44.271-108.243-17.662-43.176-63.459-60.582-99.365-49.758.443,1.165.862,2.388,1.351,3.565,9.2,22.438,18.64,44.784,27.46,67.4a31.737,31.737,0,0,1,1.585,15.844c-1.037,6.384-7.806,9.006-13.188,5.487-3.3-2.155-5.918-5.709-8.062-9.122-1.911-3.017-2.645-6.757-4.043-10.124-8.714-21.227-17.569-42.43-26.528-64.042Zm-295.2-5.3c-29.522-13.211-69.319-7.491-95.113,21.087a84.185,84.185,0,0,0,82.892,137.951c39.145-9.88,60.139-43.852,62.352-68.737h-5.417q-36.512-.151-73.071-.151c-14.178,0-19.118-8.272-12.443-20.807.513-.967,1.083-1.9,1.643-2.843Zm80.387-65.859,61.35,107.952,1.922-.664V294.422c0-7.235,3.4-10.707,10.6-10.916,2.33-.058,4.765.175,7.118,0,4.532-.443,7.713,1.235,9.949,5.953-2.6,1.386-4.963,3.239-7.619,3.9s-5.674.151-8.551.151v25.829l93.412-118.833Zm48.3,131.73L222.162,210.2c-9.845,17.091-19.095,33.134-28.368,49.246,26.551,17.475,38.691,42.99,43.479,72.9ZM181.713,277.075c-10.59,18.571-20.714,36.3-31.316,54.873h64.077C209.953,309.638,199.934,291.568,181.713,277.075Z" transform="translate(-23.35 -126.319)" fill="#3a393e" opacity="0.203"/>
</svg>
