<svg id="Layer_1" data-name="Layer 1" xmlns="http://www.w3.org/2000/svg" viewBox="0 0 1900 1057.14"><defs><style>.cls-1{fill:#fff;}</style></defs><path class="cls-1" d="M1341.22,283.34c-23.53,29.4-45.07,56.16-66.45,83.05Q1162,508.29,1049.24,650.26c-22,27.68-44.18,55.21-66,83C969.69,750.64,964,770.1,965,792.61c1.47,32.56,1,65.23.5,97.83-.36,21.62-10.27,30.31-32.22,30.39-10.88,0-21.84-1.13-32.64-.24-16.12,1.33-27-5.4-34.63-18.84,13.3-26.66,40.3-14.2,61-21.74V759.44h-17c-61.55,0-123.1.64-184.63-.25C711.36,759,708,764.73,706,776.54c-13.35,76.8-47,143.23-104.66,196.2-53.69,49.33-116.57,82.34-189.1,92C252.07,1086.1,90,999.56,33,839.33c-48.23-135.42-20.68-259.57,78.7-362.25,78.63-81.24,178.74-116,292.51-101.34,31,4,61.09,15.12,91.33,23.92,7.42,2.15,10.81,1.37,14.66-5.24q48.39-83.28,97.41-166.19c7.8-13.17,8-25.46.18-38.66-6.22-10.52-10.68-22.07-16.91-32.59-8.8-14.87-22.42-23.43-39-28.26a21.45,21.45,0,0,1-12-9.83c-12.06-24.23-10-42,6.28-52.91a35.16,35.16,0,0,1,18.32-6c75.69-.42,151.4-.93,227.07.41,10.57.18,21,10.15,31.48,15.6-9.41,24.23-24.84,33.68-47.36,35.59-34.35,2.91-68.54,7.73-102.78,11.91-3.15.38-6.15,2-11,3.66,3.9,11.09,7.06,21.82,11.43,32,6,14,17,20.87,32.38,20.78,11.36-.07,22.72.2,34.08.2h559.65c-13.33-29.2-24.24-56.56-38.53-82-3.73-6.65-17.87-10-27.42-10.4-35.45-1.43-71-.87-106.48-1.34a92.34,92.34,0,0,1-21-2.32c-19.56-4.87-26.2-14.61-25.81-36.17.38-20.69,6.74-28.59,27.08-33.44,4.11-1,8.29-2.35,12.44-2.37,51.13-.31,102.25-.76,153.38-.4,24.22.18,40.68,12.89,49.84,35.23q43.44,106,86.93,212c13.9,34,27.28,68.24,41.27,102.21,7.15,17.35,16.22,22.07,36,19.53,14-1.79,27.94-4.92,42-6.21,151.42-13.93,307.56,74.72,360.28,226,60.47,173.55-16.66,365.41-194,440.69-146.9,62.37-316.58,16.32-414.22-113C1222.19,850,1202.91,761.55,1216.38,665c14.82-106.2,75.52-181.48,160.24-240.92,17-11.95,17-11.42,9.21-30.42C1371.13,357.85,1356.81,321.94,1341.22,283.34Zm151.41,174.4c1.43,4.56,1.85,6.36,2.54,8,27.84,67.54,55.91,135,83.43,202.65,7.78,19.11,16.45,38.08,13.79,60-2.56,21-20.74,33-40.75,25.91-14-5-22.32-15.09-27.79-28.26q-31.21-75.13-62.45-150.27c-12.4-29.95-24.57-60-37.06-90.51-3.64,1.51-5.85,2.2-7.84,3.29-112.4,61.49-163.68,214.57-112.16,334.74,70.42,164.24,263.24,222.32,411.7,124,113.25-75,155.75-229.53,91.72-349.28-55.56-103.91-144.33-156.32-263.87-150.94C1526.93,447.85,1510.2,454,1492.63,457.74ZM628.08,757.43c-11.1,0-21.39,0-31.68,0-75.71-.21-151.44.58-227.12-1-41-.88-53.93-26.13-34.72-62.32,1.1-2.08,2.21-4.17,3.41-6.21Q378.41,618.91,418.88,550C434.51,523.26,450,496.5,466.05,469c-26.94-13.94-54.74-20.14-82.72-21.82-93.76-5.62-174.11,24.37-234.66,97.73C94.43,610.66,73.4,686.6,88.73,771.2c11.83,65.29,44.72,118.55,95.9,160.32C258.76,992,343.48,1009.14,434.84,985c76.54-20.26,132.55-69.58,171.4-138C621.52,820,630.74,791,628.08,757.43ZM922.66,601.17l5.68-1.14c.28-5.73.66-11.47.83-17.21.31-10.82-.24-21.73.91-32.45,1.51-14,14.18-28.4,26.79-29.25,16.46-1.1,33.23-1.61,49.51.48,6.54.83,13.54,8.36,17.36,14.64,1.32,2.18-5.43,11-10.15,14.61-4.5,3.47-11,5-16.88,5.86-9.46,1.43-24.16-1.76-27.46,3.16-4.88,7.29-1.83,20-2,30.33q-.21,16.32,0,32.65c0,3.28.77,6.55,1.46,12.07L1270.31,254H727.93ZM661.33,284.58c-2.64,2.79-4.15,3.9-5,5.38-27.69,47.18-55.24,94.45-83,141.57-4.15,7-3.21,11,3.48,16.29,52.79,42.15,91.88,94.56,114,158.62,8.37,24.28,13.7,49.61,20.56,75H883.91Zm-130.77,219c-34.45,59-68,116.46-102.72,175.9H633.22C622.64,607,587.14,550.81,530.56,503.57Z" transform="translate(-9.8 -11.6)"/></svg>