<svg id="Layer_1" data-name="Layer 1" xmlns="http://www.w3.org/2000/svg" viewBox="0 0 1900 1057.1"><path d="M1341.2,283.3c-23.5,29.4-45,56.2-66.4,83.1L1049.2,650.3c-22,27.6-44.1,55.2-65.9,83-13.6,17.3-19.4,36.8-18.3,59.3,1.4,32.6,1,65.2.5,97.8-.4,21.7-10.3,30.3-32.2,30.4-10.9.1-21.9-1.1-32.7-.2-16.1,1.3-27-5.4-34.6-18.8,13.3-26.7,40.3-14.3,61-21.8V759.4H910.1c-61.6.1-123.1.7-184.7-.2-14-.2-17.4,5.5-19.4,17.3-13.4,76.8-47,143.3-104.7,196.2-53.7,49.4-116.5,82.4-189.1,92C252.1,1086.1,90,999.6,33,839.3c-48.3-135.4-20.7-259.5,78.6-362.2,78.7-81.3,178.8-116,292.6-101.4,30.9,4,61.1,15.2,91.3,24,7.4,2.1,10.8,1.3,14.6-5.3q48.4-83.2,97.5-166.2c7.8-13.1,7.9-25.4.1-38.6-6.2-10.5-10.6-22.1-16.9-32.6-8.8-14.9-22.4-23.5-39-28.3a21,21,0,0,1-11.9-9.8c-12.1-24.2-10-42,6.2-52.9,5.2-3.5,12.2-6,18.4-6,75.7-.4,151.4-.9,227,.4,10.6.2,21,10.2,31.5,15.6-9.4,24.2-24.8,33.7-47.3,35.6-34.4,2.9-68.6,7.7-102.8,11.9-3.2.4-6.2,2-11,3.7,3.9,11.1,7,21.8,11.4,32,6,14,17,20.9,32.4,20.8,11.3-.1,22.7.2,34.1.2h559.6c-13.3-29.2-24.2-56.6-38.5-82-3.8-6.7-17.9-10.1-27.4-10.4-35.5-1.5-71-.9-106.5-1.4a92.6,92.6,0,0,1-21-2.3c-19.6-4.9-26.2-14.6-25.8-36.2s6.7-28.6,27-33.4c4.2-1,8.3-2.3,12.5-2.4,51.1-.3,102.2-.7,153.4-.4,24.2.2,40.7,12.9,49.8,35.3q43.5,105.9,86.9,212c13.9,34,27.3,68.2,41.3,102.2,7.2,17.3,16.2,22,36.1,19.5,14-1.8,27.9-4.9,42-6.2,151.4-14,307.5,74.7,360.3,226,60.4,173.6-16.7,365.4-194,440.7-146.9,62.4-316.6,16.3-414.2-113-59.1-78.2-78.4-166.7-64.9-263.3,14.8-106.2,75.5-181.4,160.2-240.9,17-11.9,17-11.4,9.2-30.4C1371.1,357.8,1356.8,321.9,1341.2,283.3Zm151.4,174.4c1.5,4.6,1.9,6.4,2.6,8.1,27.8,67.5,55.9,135,83.4,202.6,7.8,19.1,16.4,38.1,13.8,60s-20.7,33-40.8,25.9c-13.9-5-22.3-15.1-27.8-28.2q-31.2-75.1-62.4-150.3c-12.4-30-24.6-60-37.1-90.5-3.6,1.5-5.8,2.2-7.8,3.3-112.4,61.5-163.7,214.5-112.2,334.7,70.5,164.2,263.3,222.3,411.7,124,113.3-75,155.8-229.5,91.8-349.3-55.6-103.9-144.4-156.3-263.9-150.9C1526.9,447.8,1510.2,453.9,1492.6,457.7ZM628.1,757.4c-11.1,0-21.4.1-31.7,0-75.7-.2-151.4.6-227.1-1-41-.9-53.9-26.2-34.7-62.3,1.1-2.1,2.2-4.2,3.4-6.2q40.3-69,80.9-137.9c15.6-26.7,31.1-53.5,47.1-81-26.9-13.9-54.7-20.1-82.7-21.8-93.7-5.6-174.1,24.4-234.6,97.7-54.3,65.8-75.3,141.7-60,226.3,11.9,65.3,44.8,118.6,95.9,160.3,74.2,60.5,158.9,77.6,250.2,53.5,76.6-20.3,132.6-69.6,171.4-138.1C621.5,820,630.7,791,628.1,757.4ZM922.7,601.2l5.6-1.2c.3-5.7.7-11.4.9-17.2.3-10.8-.3-21.7.9-32.4,1.5-14,14.2-28.4,26.8-29.3,16.4-1.1,33.2-1.6,49.5.5,6.5.8,13.5,8.4,17.3,14.6,1.4,2.2-5.4,11-10.1,14.7s-11,4.9-16.9,5.8c-9.4,1.4-24.2-1.7-27.5,3.2-4.8,7.3-1.8,19.9-1.9,30.3s-.1,21.8,0,32.6c0,3.3.8,6.6,1.5,12.1L1270.3,254H727.9C793.5,370.8,858.1,486,922.7,601.2ZM661.3,284.6c-2.6,2.8-4.1,3.9-5,5.4-27.7,47.1-55.2,94.4-83,141.5-4.2,7.1-3.2,11,3.4,16.3,52.8,42.2,91.9,94.6,114,158.6,8.4,24.3,13.7,49.6,20.6,75H883.9C809.1,548.1,735.6,416.9,661.3,284.6Zm-130.7,219L427.8,679.5H633.2C622.6,607,587.1,550.8,530.6,503.6Z" transform="translate(-9.8 -11.6)" style="fill:#f2cb03"/></svg>