<svg xmlns="http://www.w3.org/2000/svg" width="25" height="25" viewBox="0 0 25 25">
  <path id="Icon_awesome-phone" data-name="Icon awesome-phone" d="M24.091,1.2,19.013.029A1.179,1.179,0,0,0,17.67.708L15.327,6.176a1.169,1.169,0,0,0,.337,1.367l2.959,2.422A18.1,18.1,0,0,1,9.97,18.618L7.548,15.659a1.171,1.171,0,0,0-1.367-.337L.713,17.665a1.186,1.186,0,0,0-.684,1.348L1.2,24.091A1.171,1.171,0,0,0,2.343,25,22.653,22.653,0,0,0,25,2.343,1.17,1.17,0,0,0,24.091,1.2Z" transform="translate(0.001 0.001)"/>
</svg>
