<svg xmlns="http://www.w3.org/2000/svg" width="25" height="25.032" viewBox="0 0 25 25.032">
  <path id="Icon_zocial-call" data-name="Icon zocial-call" d="M3.32,7.858a1.842,1.842,0,0,1,.469-1L7.539,3.108q.438-.375.656.125l3.032,5.688a.818.818,0,0,1-.156.969L9.7,11.265a1.555,1.555,0,0,0-.438.969,4.771,4.771,0,0,0,.969,2.407,20.552,20.552,0,0,0,1.907,2.5l.969,1c.292.292.666.651,1.126,1.078a18.869,18.869,0,0,0,2.265,1.688,5.07,5.07,0,0,0,2.485,1.047,1.361,1.361,0,0,0,1-.406L21.6,19.923a.687.687,0,0,1,.937-.125l5.471,3.219a.457.457,0,0,1,.25.328.4.4,0,0,1-.125.359l-3.751,3.751a1.837,1.837,0,0,1-1,.468,7.561,7.561,0,0,1-3.455-.422,15.63,15.63,0,0,1-3.562-1.7q-1.641-1.062-3.047-2.156t-2.25-1.875l-.813-.782q-.312-.312-.828-.86t-1.8-2.156a31.39,31.39,0,0,1-2.219-3.141,18.324,18.324,0,0,1-1.625-3.485A7.414,7.414,0,0,1,3.32,7.858Z" transform="translate(-3.267 -2.947)" fill="#fff"/>
</svg>
