<svg xmlns="http://www.w3.org/2000/svg" width="189.27" height="81.248" viewBox="0 0 189.27 81.248">
  <g id="Group_71" data-name="Group 71" transform="translate(-19.974 -4.752)">
    <path id="cykel" d="M89.041,194.994a8.429,8.429,0,0,1,2.047-1.17,11.042,11.042,0,0,1,2.632-.047v-9.413H76.438c-1.483,8.93-6.053,15.764-14.059,20.06a25.73,25.73,0,0,1-20.013,1.986,26.689,26.689,0,1,1,18.688-49.869q4.138-7.018,8.272-14.092a2.047,2.047,0,0,0,.213-1.059c-.088-2.193-2.31-5.3-4.442-5.819-1.6-.389-2.146-2.255-1.98-3.626.155-1.284,1.006-1.9,2.728-1.9,5.79-.015,11.58-.05,17.367.044a8,8,0,0,1,2.591,1.1c-.86,1.664-1.725,2.632-3.509,2.769-2.877.208-5.734.673-8.571,1.023-.515,2.605.763,4.2,3.281,4.2l39.968.029h5.334c0-4.448-2.649-7.153-6.9-7.155-2.3,0-4.6.018-6.892,0-1.866-.018-2.819-1-2.924-2.924a2.406,2.406,0,0,1,2.562-2.757c4.4-.088,8.816-.076,13.217.064,1.787.056,2.784,1.415,3.43,3q4.994,12.211,10.006,24.414c.173.424.366.839.611,1.4,9.7-2.322,18.457-.518,25.864,6.392a25.391,25.391,0,0,1,8.141,16.554,26.646,26.646,0,1,1-39.383-20.683c-1.351-3.263-2.708-6.547-4.155-10.053-1.535,1.939-2.965,3.737-4.386,5.556Q110,167.638,98.5,182.259a6.149,6.149,0,0,0-1.521,4.155c.094,2.614.035,5.234.061,7.851a2.205,2.205,0,0,1-2.494,2.553,21.049,21.049,0,0,0-2.614.02C90.6,196.991,89.763,196.406,89.041,194.994Zm43.2-32.166a20.914,20.914,0,0,0-8.4,27.107,21.13,21.13,0,0,0,38.713-16.893c-4.433-10.837-15.928-15.206-24.94-12.489.111.292.216.6.339.895,2.31,5.632,4.679,11.241,6.892,16.916a7.966,7.966,0,0,1,.4,3.977,2.088,2.088,0,0,1-3.31,1.377,7.385,7.385,0,0,1-2.024-2.29,16.44,16.44,0,0,1-1.015-2.541c-2.187-5.328-4.41-10.65-6.658-16.074ZM58.144,161.5a21.094,21.094,0,1,0-3.067,39.918c9.825-2.48,15.095-11.007,15.65-17.253h-1.36q-9.164-.038-18.34-.038c-3.559,0-4.8-2.076-3.123-5.223.129-.243.272-.477.412-.714Zm20.177-16.53,15.4,27.1.482-.167v-3.383a2.4,2.4,0,0,1,2.661-2.74c.585-.015,1.2.044,1.787,0a2.267,2.267,0,0,1,2.5,1.494,9.185,9.185,0,0,1-1.912.98,9.191,9.191,0,0,1-2.146.038v6.483l23.446-29.827Zm12.124,33.064L73.251,147.374c-2.471,4.29-4.793,8.316-7.12,12.36,6.664,4.386,9.711,10.79,10.913,18.3ZM63.1,164.158c-2.658,4.661-5.2,9.112-7.86,13.773H71.321A22.409,22.409,0,0,0,63.1,164.158Z" transform="translate(18.15 -121.567)" fill="#fff" opacity="0.097"/>
    <g id="Group_70" data-name="Group 70">
      <text id="_Cykel_REP" data-name=" Cykel REP" transform="translate(39.403 58)" fill="#f2cb03" font-size="32" font-family="Tahoma-Bold, Tahoma" font-weight="700"><tspan x="0" y="0" xml:space="preserve"> Cykel REP</tspan></text>
      <text id="_." data-name="." transform="translate(199 57.7)" fill="#f2cb03" font-size="24" font-family="Tahoma-Bold, Tahoma" font-weight="700"><tspan x="0" y="0">.</tspan></text>
      <g id="x" transform="translate(19.974 33.156)">
        <path id="Path_2" data-name="Path 2" d="M39.638,44.543l-6.55-6.653L27,44.047,21.67,38.724,27.79,32.2c-.3-.318-.58-.623-.866-.925Q24.4,28.6,21.869,25.937c-.124-.131-.146-.189-.009-.333q2.126-2.245,4.234-4.505c.266-.284.526-.574.849-.929.205.238.384.464.581.672q2.115,2.232,4.233,4.46c.406.428.82.849,1.21,1.291.171.2.276.212.465.018q2.128-2.176,4.274-4.334,1-1.015,2-2.026c.077-.077.159-.147.268-.25l5.208,5.5c-2.243,2.286-4.466,4.556-6.7,6.84l6.444,6.855ZM27.526,26.506a2.474,2.474,0,0,1,.025-.259,10.187,10.187,0,0,0,.242-1c.02-.138-.092-.3-.144-.448a1.165,1.165,0,0,0-.284.144c-.244.235-.467.491-.71.728-.263.253-.54.491-.83.752l.4.4.788-.947.068.03c-.047.231-.089.464-.142.695a5.445,5.445,0,0,0-.16.642.424.424,0,0,0,.166.286c.029.025.172-.049.232-.113.421-.439.834-.884,1.248-1.333.071-.077.132-.164.189-.239-.112-.187-.214-.187-.343-.058C28.047,26.015,27.814,26.23,27.526,26.506ZM38.54,39.891c.329-.165.493-.548.931-.678-.095.382-.164.687-.246.985-.06.219-.08.413.183.536l.331-1.024.463.35.852-1.039L40,38l-1.671,1.662Zm-11-12.2-.135.008c-.013.122-.083.3-.031.357.309.332.646.638.988.964l.957-.873-.8-.911.531-.508c.265.329.507.63.749.933l.109,0c.019-.128.1-.318.047-.374-.331-.357-.69-.684-.98-.964-.267.239-.506.465-.758.675-.211.176-.167.321.008.491s.363.386.551.589l-.383.508Zm11.065,8.722L37.04,38.19c.244.265.544.6.857.92a.216.216,0,0,0,.221.009c.5-.536,1-1.083,1.44-1.567ZM33.19,33.642c-.173-.17-.315-.309-.456-.449-.118-.117-.142-.207.005-.347.392-.369.768-.758,1.139-1.151.055-.058.051-.177.073-.268-.1,0-.231-.031-.306.019a2.024,2.024,0,0,0-.336.336c-.392.424-.782.849-1.191,1.293L33.186,34.1l1.638-1.688-.308-.3ZM37.34,35.4l.779.933.222-.295-1.05-1.014-1.717,1.64.253.207.769-.723.775.923.225-.278-.8-.895ZM33.559,30.86c-.369-.333-.7-.65-1.047-.944-.065-.055-.2-.026-.3-.035a.979.979,0,0,0,.053.3,2.91,2.91,0,0,0,.315.393l-1.473,1.385.3.295,1.468-1.394.379.334c.076-.077.139-.147.3-.332Zm1.793,2.647c-.382.419-.744.819-1.109,1.216-.28.307-.276.356.091.636.363-.434.734-.864,1.089-1.309.157-.2.281-.253.458-.028.136.172.284.2.41-.062-.326-.333-.655-.651-.963-.99-.168-.185-.253-.113-.357.056ZM29.5,30.174,30.859,28.7c.417.374.417.374.6.157l-1.136-1.15-.15.2.474.579-1.463,1.4Zm-3.951-4.029,1.666-1.8c-.087-.105-.142-.173-.146-.177l-1.766,1.685Zm6.407,3.25c-.169-.24-.17-.242-.327-.078q-.4.422-.8.848l-.707.753.03.107c.095,0,.231.043.278-.007C30.949,30.484,31.453,29.936,31.959,29.395Z" transform="translate(-21.67 -20)" fill="#f3d02e"/>
        <path id="Path_14" data-name="Path 14" d="M0,0,24.712,1.452l.242,4.16L.242,4.16Z" transform="translate(4.585 2.122) rotate(42.66)" fill="#f3d02e"/>
      </g>
    </g>
  </g>
</svg>
