<svg id="Layer_1" data-name="Layer 1" xmlns="http://www.w3.org/2000/svg" viewBox="0 0 530 495.99"><defs><style>.cls-1{fill:none;}.cls-2{fill:#fff;}</style></defs><line class="cls-1" x1="60.56" y1="163.35" x2="60.56" y2="204.05"/><path class="cls-2" d="M403.78,518c-2.65-.62-5.34-1.11-7.95-1.86a48.64,48.64,0,0,1-24.29-16Q323.15,441.84,275,383.3q-20.28-24.57-40.52-49.17c-.53-.65-1.11-1.26-1.79-2-.67.74-1.26,1.33-1.79,2Q187,387.23,143,440.42,119.45,469,95.89,497.49A3.58,3.58,0,0,1,92.71,499c-3-.09-6.07,0-9.39,0,0-3.3-.1-6.41.08-9.49,0-.79.95-1.56,1.53-2.27Q97.46,472,110,456.85l79.84-96.6,32.24-39c.74-.89,1.47-1.8,2.39-2.93a24.51,24.51,0,0,0-1.87-2.88c-13-15.06-25-31-37.18-46.73a356.33,356.33,0,0,0-26.74-31.34c-16.9-17.23-36.69-30.18-58.69-39.9-16.22-7.16-33-12.57-50.07-17.37-4.33-1.22-8.58-2.81-12.78-4.45a30.12,30.12,0,0,1-5.25-3c-1.38-.88-2.61-2-4-2.88-4.86-3.08-8.34-7.47-11.62-12.06a17.56,17.56,0,0,1-1.51-2.63,108.12,108.12,0,0,1-9-26.5,39.34,39.34,0,0,1-.46-6.52c-.14-6.17-.39-12.34-.27-18.5C5.29,89.75,7.81,76.37,14.17,64c2-3.9,5.11-7.26,7.84-10.77a53.74,53.74,0,0,1,4.89-5.35,5.14,5.14,0,0,1,7.66.89,19.57,19.57,0,0,1,2.15,4.89c4,14.58,7.92,29.19,11.92,43.78.74,2.7,1.74,5.34,2.72,8a28.63,28.63,0,0,0,2,4.24c3.06,5.42,6.53,6.66,12.11,5.56a114.49,114.49,0,0,0,14.38-4c13-4.39,26-8.77,39.22-12.26a4.63,4.63,0,0,0,.84-.44c-.15-.6-.27-1.26-.46-1.89C113.68,77.8,107.9,59,102.27,40.2a44.79,44.79,0,0,1-1.21-8.29,3.27,3.27,0,0,1,2.31-3.45,8.46,8.46,0,0,1,3.18-.59c5.31.09,10.62.22,15.92.46a20.05,20.05,0,0,1,8.21,2.52,57.6,57.6,0,0,1,11.9,7.83q32.82,28.83,65.67,57.65a51.26,51.26,0,0,1,8.47,9,10.46,10.46,0,0,1,1.29,2.21c1.74,4.58,0,7.75-4.81,9-7.17,1.8-14.33,3.65-21.48,5.5a13.16,13.16,0,0,0-1.45.58c.56,3.17,1.11,6.3,1.67,9.43,1.09,6.07,1.83,12.22,3.35,18.17,1.88,7.31,4.33,14.49,6.74,21.65.76,2.26,2.27,4.26,3.31,6.44,6.66,13.94,15.87,26.14,26,37.67,8.85,10.1,18,19.94,27,29.87,3.67,4.05,7.4,8.05,11.07,12.09a21.3,21.3,0,0,1,1.49,2.14c1.56-1.86,2.71-3.21,3.83-4.58q32.4-39.47,64.83-78.92c3.81-4.62,4-9.59,2.53-14.94a17.32,17.32,0,0,0-4.4-7.1q-15-16-30-31.92-25.11-26.56-50.29-53a10.76,10.76,0,0,1-2.84-5.25c-.79-3.58-1-7.15.57-10.55a15.66,15.66,0,0,1,2.78-4.29c3.86-4.08,7.84-8.06,11.84-12a37.59,37.59,0,0,1,10-7.26c3.5-1.7,6.84-3.73,10.37-5.39a27.37,27.37,0,0,1,21.37-1.15A10.6,10.6,0,0,1,314,24.9c24.89,17.38,49.94,34.55,74.15,52.89,19.55,14.82,38.5,30.36,56.14,47.44,9.66,9.36,18.74,19.23,27.58,29.36,6.11,7,12.69,13.57,19.1,20.3,2.64,2.77,5.38,5.44,8.06,8.16,4.55,4.61,6.94,10.31,8.27,16.52,1.44,6.7,1.3,13.5.94,20.29-.05,1-.38,2-.44,3-.3,5.54,2.27,9.77,6.29,13.23,2.48,2.14,5.15,4.06,7.72,6.09,3.92,3.1,7.84,6.19,11.74,9.32a13,13,0,0,1,1.47,1.73v2.34a25,25,0,0,1-4.7,8.51,4,4,0,0,1-5,1.41A10.16,10.16,0,0,1,523,264c-1.29-1-2.5-2.09-3.78-3.11-1.76-1.42-3.59-2.75-5.31-4.22-4.64-3.95-9.27-7.91-13.81-12a4.39,4.39,0,0,0-5.15-.89,19.11,19.11,0,0,0-3.14,2c-.76.54-1.4,1.24-2.11,1.85-3.95,3.43-8.27,5.74-13.8,5.23a10.66,10.66,0,0,1-5.1-1.32q-4.11-2.68-8.11-5.54c-29.47-20.92-59.77-40.61-89.76-60.74a17.62,17.62,0,0,0-8.33-2.85c-5.67-.49-9.93,2.06-13.36,6.32-1.12,1.4-2.11,2.9-3.25,4.29q-27.24,33.09-54.5,66.16c-3.43,4.15-6.91,8.25-10.45,12.48.63.71,1.18,1.35,1.75,2l69.14,76.75q41.85,46.47,83.74,92.92a32.32,32.32,0,0,1,6.93,11.24c.07.22.18.42.27.64,3.19,8.47,5.3,17.15,4.81,26.28-.44,8.23-3.09,15.61-9,21.5a50.06,50.06,0,0,1-24.4,13.6L410.34,518Zm.33-33c9.51,0,13.63-8.6,12.06-15.61-1.49-6.66-8.72-10.61-16-8.79-5.38,1.34-8.7,5.89-8.91,11.79a11.78,11.78,0,0,0,8.32,11.72A36.38,36.38,0,0,0,404.11,485ZM325.28,85.61a19.37,19.37,0,0,0,0-9.3c-.49-1.92-1.46-3.42-3.67-3.7a29.24,29.24,0,0,0-3.9-.61c-2.6,0-5.11.47-6.86,3.08Z" transform="translate(-5 -22)"/></svg>