<svg xmlns="http://www.w3.org/2000/svg" width="1693.613" height="941.133" viewBox="0 0 1693.613 941.133">
  <path id="cykel" d="M784.285,921.8c7.757-4.64,15.242-11.447,23.71-13.547,9.349-2.407,19.781-.542,30.485-.542V798.681H638.3c-17.173,103.445-70.115,182.6-162.856,232.362-73.536,39.495-151.713,46.37-231.82,23C82.83,1007.1-10.216,836.042,34.6,674.676c43.8-157.809,227.349-281.137,425.5-198.285Q508.025,395.1,555.92,313.159a23.705,23.705,0,0,0,2.473-12.261c-1.016-25.4-26.759-61.409-51.452-67.4-18.494-4.505-24.862-26.116-22.932-42,1.8-14.869,11.652-21.982,31.6-22.016,67.066-.17,134.133-.576,201.165.508,9.721.17,19.273,7.993,30.011,12.771-9.958,19.273-19.984,30.484-40.646,32.077-33.331,2.4-66.423,7.79-99.279,11.855-5.962,30.18,8.84,48.606,38,48.64l462.963.338h61.782c0-51.52-30.688-82.851-79.972-82.885-26.624,0-53.247.2-79.836,0-21.611-.2-32.653-11.583-33.872-33.871-.915-18.46,9.146-31.535,29.672-31.941,51.011-1.017,102.123-.882,153.1.744,20.695.644,32.245,16.394,39.732,34.719q57.853,141.45,115.909,282.8c2,4.91,4.234,9.721,7.079,16.225,112.32-26.9,213.8-6,299.6,74.044a294.112,294.112,0,0,1,94.3,191.75A308.234,308.234,0,0,1,1491.263,1055.8c-143.516,40.239-298.311-30.18-361.72-165.16-64.967-138.772-21.983-314.331,129.594-402.975-15.649-37.8-31.365-75.838-48.132-116.45-17.783,22.456-34.346,43.287-50.809,64.356Q1027.013,604.931,893.9,774.293c-11.177,14.193-18.257,29.232-17.613,48.133,1.084,30.281.407,60.629.711,90.945.2,19.747-8.84,29.3-28.893,29.571-10.162,0-20.323-1.018-30.281.236C802.306,944.942,792.652,938.165,784.285,921.8Zm500.357-372.591c-95.146,51.688-157.267,185.72-97.28,313.993,55.821,119.364,198.286,172.238,319.717,119.026,120.449-52.773,178.269-193.545,128.713-314.7C1584.444,542,1451.293,491.4,1346.9,522.862c1.287,3.388,2.506,6.942,3.929,10.365,26.759,65.237,54.2,130.2,79.836,195.948a92.277,92.277,0,0,1,4.607,46.066c-3.015,18.562-22.695,26.184-38.344,15.954-9.585-6.267-17.206-16.6-23.439-26.522-5.555-8.773-7.689-19.646-11.754-29.435-25.336-61.715-51.079-123.362-77.127-186.194ZM426.394,533.8c-85.832-38.412-201.538-21.78-276.531,61.307a244.759,244.759,0,0,0,241,401.078c113.81-28.724,174.848-127.493,181.284-199.845H556.395Q450.24,795.9,343.949,795.9c-41.222,0-55.584-24.051-36.175-60.5,1.491-2.81,3.15-5.52,4.776-8.265ZM660.111,342.326l178.37,313.856,5.589-1.93v-39.19c0-21.034,9.891-31.128,30.823-31.739,6.774-.167,13.853.509,20.7,0,13.176-1.286,22.423,3.591,28.927,17.31-7.553,4.031-14.429,9.415-22.153,11.346s-16.495.442-24.862.442v75.1l271.586-345.5ZM800.544,725.314,601.377,370.2c-28.622,49.691-55.517,96.333-82.479,143.177,77.194,50.809,112.489,124.987,126.41,211.936ZM483.773,564.625c-30.79,53.993-60.224,105.547-91.048,159.537h186.3C565.879,659.3,536.749,606.763,483.773,564.625Z" transform="translate(-23.35 -126.319)" fill="#fff" opacity="0.098"/>
</svg>
