<svg xmlns="http://www.w3.org/2000/svg" width="1088.03" height="1016" viewBox="0 0 1088.03 1016">
  <path id="rep" d="M576.259,536.782c50.625,55.675,100.388,110.427,150.212,165.137,53.663,58.939,107.614,117.612,160.969,176.818,24.43,27.1,38.862,58.365,28.187,95.563a87.434,87.434,0,0,1-146.948,37.712c-19.5-19.605-36.111-42.106-53.7-63.641q-69.491-84.909-138.716-170.023Q531.094,723.105,485.7,668.067c-2.484-3.018-5.091-5.953-8.725-10.265-3.613,3.942-6.9,7.206-9.813,10.737Q336.005,826.86,205.029,985.181c-9.094,11.024-17.717,22.582-35.167,16.813-5.954-13.282-2.464-24.635,6.857-35.885q94.065-113.4,187.657-227.258c27.448-33.3,54.526-66.925,82.281-99.977,5.584-6.651,6.344-10.942.657-17.881C406.523,571.271,366.8,520.687,325.392,471.5c-38.082-45.164-87.906-73.248-143.417-92.2-33.647-11.476-66.966-24-100.388-36.131s-54.813-36.439-64.626-70C2.283,223.035-1.166,172.327,19.753,123.057c6.754-15.828,17.963-30.1,28.844-43.727,9.792-12.318,18.907-10,23.568,5.235q16.259,53.612,31.574,107.573c5.214,18.189,12.892,23.978,30.794,19.236,33.134-8.807,66.042-18.476,98.848-28.453,2.628-.8,5.933-7.432,5.112-10.265-9.526-33.832-19.77-67.459-29.829-101.147-11.25-37.671-5.995-36.953,25.887-36.4A75.752,75.752,0,0,1,283.9,54.346C334.26,98.279,383.962,142.93,433.765,187.355a62.819,62.819,0,0,1,8.212,8.479c7.124,9.259,5.42,15.992-5.953,20.037-15.684,5.563-31.7,10.265-48.572,15.52,6.159,44.877,16.259,87.68,37.753,127.425s53.376,70.764,83.1,103.816c13.98,15.623,28.433,30.794,43.645,47.217,20.529-24.861,40.463-48.818,60.233-72.9q33.524-40.833,66.843-81.85c1.663-2.053,3.387-4.106,4.989-6.159,19.462-25.046,19.318-36.583-2.546-59.781-36.542-38.8-73.618-77.128-110.365-115.723q-22.787-23.917-45.164-48.223c-13.672-14.966-14.37-27.037-2.792-43.686,18.086-26.113,41.654-44.979,72-55.429,17.06-5.81,33.483-5.03,47.936,5.255,76.328,54.525,156.6,103.939,225.328,168.011,45.657,42.557,87.454,89.282,130.751,134.343,10.059,10.449,22.233,20.344,28.063,32.97a123.175,123.175,0,0,1,11.045,49.27c.205,23.157,4.25,42.393,24.943,55.737,7.719,4.989,14.37,11.681,21.371,17.655,10.86,9.2,11.229,16.239,1.273,29.008-8.212,10.552-15.951,3.49-22.582-1.683-13.878-10.8-27.324-22.172-40.566-33.75-6.282-5.461-11.455-6.857-18.066-.513-4.106,3.88-9.443,6.4-14.165,9.628-10.655,7.267-21.186,7.329-31.882,0-35.454-24.532-70.764-49.27-106.546-73.33-28.741-19.338-58.016-38-87.331-56.537-22.213-14.062-33.278-12.318-50.317,7.6-12.051,14.042-23.629,28.474-35.413,42.742Zm250.723,442.1c19.072.287,33.032-12.851,33.237-31.328.205-16.629-14.062-31.841-30.178-32.21-17.08-.39-32.6,14.1-33.031,30.794C796.516,965,808.978,978.591,826.982,978.879ZM662.912,154.467c1.745-13.59,1.56-24-10.778-28.515-8.458-3.1-15.068.267-18.928,10.716Z" transform="translate(-5.007 -22.475)" fill="#fff" opacity="0.103"/>
</svg>
